<svg width="121" height="122" viewBox="0 0 121 122" fill="none"
  xmlns="http://www.w3.org/2000/svg">
  <path fill-rule="evenodd" clip-rule="evenodd" d="M36.3614 0.64893C31.0264 0.64893 25.91 2.76665 22.1376 6.53622C18.3652 10.3058 16.2459 15.4184 16.2459 20.7494V23.0489C16.2459 26.6509 17.316 30.0037 19.1586 32.8097H12.2228C9.02178 32.8097 5.9519 34.0803 3.68846 36.3421C1.42503 38.6038 0.153442 41.6714 0.153442 44.87L0.153442 52.9102C0.153442 56.1088 1.42503 59.1763 3.68846 61.4381C5.9519 63.6998 9.02178 64.9705 12.2228 64.9705H56.4769V32.8097H64.5232V64.9705H108.777C111.978 64.9705 115.048 63.6998 117.312 61.4381C119.575 59.1763 120.847 56.1088 120.847 52.9102V44.87C120.847 41.6714 119.575 38.6038 117.312 36.3421C115.048 34.0803 111.978 32.8097 108.777 32.8097H101.841C103.684 30.0037 104.754 26.6509 104.754 23.0489V20.7494C104.754 15.4184 102.635 10.3058 98.8625 6.53622C95.0901 2.76665 89.9737 0.64893 84.6387 0.64893C74.3959 0.64893 65.4243 6.11626 60.5 14.2851C57.9968 10.1234 54.4579 6.68012 50.2279 4.29051C45.9978 1.9009 41.2206 0.646338 36.3614 0.64893ZM64.5232 32.8097H86.9399C92.3309 32.8097 96.708 28.4358 96.708 23.0489V20.7494C96.708 17.5508 95.4364 14.4832 93.173 12.2215C90.9096 9.95975 87.8397 8.68912 84.6387 8.68912C79.3037 8.68912 74.1873 10.8068 70.4149 14.5764C66.6425 18.346 64.5232 23.4586 64.5232 28.7896V32.8097ZM56.4769 32.8097H34.0602C28.6692 32.8097 24.2921 28.4358 24.2921 23.0489V20.7494C24.2921 17.5508 25.5637 14.4832 27.8271 12.2215C30.0905 9.95975 33.1604 8.68912 36.3614 8.68912C39.003 8.68912 41.6188 9.20903 44.0593 10.2192C46.4998 11.2293 48.7173 12.7099 50.5852 14.5764C52.4531 16.4429 53.9348 18.6588 54.9457 21.0975C55.9566 23.5362 56.4769 26.15 56.4769 28.7896V32.8097Z" fill="#66DCD6"/>
  <path d="M56.4694 72.9204H8.10315V101.166C8.10315 106.517 10.2264 111.649 14.0057 115.433C17.7851 119.217 22.9109 121.342 28.2557 121.342H56.4694V72.9204ZM64.5304 121.342H92.7441C98.0889 121.342 103.215 119.217 106.994 115.433C110.773 111.649 112.897 106.517 112.897 101.166V72.9204H64.5304V121.342Z" fill="#66DCD6"/>
</svg>
