<svg width="181" height="173" viewBox="0 0 181 173" fill="none"
  xmlns="http://www.w3.org/2000/svg">
  <path d="M0 91.5882L90.5 0L181 91.5882H153.85V173H27.15V91.5882H0ZM90.5 152.647L97.016 145.931C120.365 122.118 135.75 106.446 135.75 87.2123C135.75 71.5406 124.799 59.2271 110.863 59.2271C102.989 59.2271 95.4775 63.3994 90.5 69.9124C87.9782 66.6037 84.857 63.9388 81.3453 62.0961C77.8337 60.2533 74.0125 59.2751 70.1375 59.2271C56.2005 59.2271 45.25 71.5406 45.25 87.2123C45.25 106.446 60.635 122.118 83.984 145.931L90.5 152.647Z" fill="#E16088"/>
</svg>
