<svg width="165" height="168" viewBox="0 0 165 168" fill="none"
  xmlns="http://www.w3.org/2000/svg">
  <path d="M55.1278 63.4106C64.7392 61.9643 71.8673 54.2147 72.9522 44.9568C74.0536 35.5419 76.5369 -2.29318 60.4945 0.113512C18.8809 6.36214 21.8015 68.4138 55.1278 63.4106ZM109.88 63.4106C143.198 68.4138 146.118 6.36214 104.505 0.10986C88.4666 -2.29683 90.9457 35.5382 92.043 44.9532C93.132 54.2147 100.268 61.9643 109.88 63.4106ZM38.0336 92.6451C38.0336 87.7221 36.0494 83.2594 32.8525 80.0127C27.593 73.9284 10.8742 61.6247 6.76975 64.7764C-1.798 71.372 -1.52162 87.6053 3.63883 99.4013C6.29124 105.96 12.6975 110.573 20.1844 110.573C30.0392 110.573 38.0336 102.546 38.0336 92.6451ZM158.225 64.7764C154.129 61.6247 137.41 73.9284 132.151 80.0127C128.954 83.2594 126.966 87.7221 126.966 92.6451C126.966 102.546 134.968 110.573 144.815 110.573C152.306 110.573 158.716 105.96 161.369 99.4013C166.517 87.6053 166.801 71.372 158.225 64.7764ZM124.664 120.569C109.5 113.874 109.97 100.983 106.522 89.2195C103.779 79.8374 94.0643 72.8985 82.5017 72.8985C77.1385 72.8858 71.9153 74.414 67.6168 77.2536C63.3182 80.0931 60.1763 84.0908 58.663 88.6461C54.9711 99.9017 57.1945 113.005 40.6654 120.481C27.2383 124.356 21.8015 130.009 21.8015 143.379C21.8015 154.24 32.3327 165.868 45.9248 167.315C61.0885 169.338 72.9192 166.694 82.5017 161.858C92.0842 166.694 103.907 169.334 119.095 167.315C132.679 165.868 143.214 154.284 143.214 143.379C143.21 129.717 138.12 124.626 124.664 120.569ZM106.774 136.908H91.053L91.0736 151.516H73.9298L73.9546 136.908H57.2729V122.3H73.9587L73.934 107.691H91.0777L91.0571 122.3H106.774V136.908Z" fill="#FDF59E"/>
</svg>
