<svg width="123" height="122" viewBox="0 0 123 122" fill="none"
  xmlns="http://www.w3.org/2000/svg">
  <path fill-rule="evenodd" clip-rule="evenodd" d="M112.257 6.96352H10.7868C9.88972 6.96352 9.02941 7.31987 8.3951 7.95418C7.76079 8.58849 7.40444 9.4488 7.40444 10.3459V111.816C7.40444 112.713 7.76079 113.573 8.3951 114.208C9.02941 114.842 9.88972 115.198 10.7868 115.198H112.257C113.154 115.198 114.014 114.842 114.648 114.208C115.283 113.573 115.639 112.713 115.639 111.816V10.3459C115.639 9.4488 115.283 8.58849 114.648 7.95418C114.014 7.31987 113.154 6.96352 112.257 6.96352ZM10.7868 0.198853C8.09562 0.198853 5.51469 1.26791 3.61176 3.17084C1.70883 5.07377 0.639771 7.6547 0.639771 10.3459V111.816C0.639771 114.507 1.70883 117.088 3.61176 118.991C5.51469 120.894 8.09562 121.963 10.7868 121.963H112.257C114.948 121.963 117.529 120.894 119.432 118.991C121.335 117.088 122.404 114.507 122.404 111.816V10.3459C122.404 7.6547 121.335 5.07377 119.432 3.17084C117.529 1.26791 114.948 0.198853 112.257 0.198853H10.7868Z" fill="#E16088"/>
  <path fill-rule="evenodd" clip-rule="evenodd" d="M21.3859 48.9197C21.3859 34.4819 30.8482 21.0931 43.8164 21.0931C52.8125 21.0931 59.4872 27.1016 63.6091 35.6184C67.7276 27.1016 74.4023 21.0931 83.4018 21.0931C96.3666 21.0931 105.832 34.4819 105.832 48.9197C105.832 79.8194 63.6091 101.789 63.6091 101.789C63.6091 101.789 35.4773 88.0369 25.1368 65.4589H37.9825L43.6803 55.6174L50.338 78.2526L65.927 58.7847H81.8735C82.3345 58.7887 82.7917 58.7029 83.2191 58.5321C83.6464 58.3613 84.0354 58.1089 84.3639 57.7894C84.6924 57.47 84.9539 57.0896 85.1334 56.6702C85.3129 56.2507 85.4069 55.8004 85.41 55.3451C85.4064 54.89 85.3121 54.4401 85.1324 54.021C84.9527 53.602 84.6912 53.222 84.3627 52.9029C84.0343 52.5838 83.6454 52.3317 83.2183 52.1611C82.7912 51.9905 82.3342 51.9048 81.8735 51.9088H62.4689L53.3094 63.3508L45.8212 37.9014L33.8469 58.5864H22.6589C21.842 55.493 21.3825 52.2686 21.3825 48.9163L21.3859 48.9197ZM22.6248 58.5897H7.12427V65.4589H25.113L22.6282 58.5897H22.6248Z" fill="#E16088"/>
</svg>
