<svg width="238" height="212" viewBox="0 0 238 212" fill="none"
  xmlns="http://www.w3.org/2000/svg">
  <path d="M127.112 47.6443C114.711 55.9917 103.718 42.0918 105.463 28.5484C106.082 23.8775 107.845 19.6007 110.809 16.3367C115.649 10.9719 125.742 10.4091 129.419 16.0741C135.385 25.1906 137.824 40.4223 127.112 47.6443ZM161.217 36.5206C147.992 43.3486 138.255 28.1169 141.275 14.7423C142.307 10.1652 144.483 6.07594 147.748 3.16841C153.094 -1.63371 163.225 -0.977172 166.414 5.13803C171.573 14.9674 172.586 30.5743 161.217 36.5206ZM219.411 34.4947C225.301 30.7806 234.625 35.2075 236.97 42.0356C238.396 46.1811 238.302 50.7957 236.932 55.3164C232.862 68.4285 216.597 76.8134 208.324 64.3204C201.195 53.6282 209.918 40.5349 219.411 34.4947ZM181.684 41.1539C173.88 31.4559 181.197 17.4997 189.864 10.3716C195.248 5.98215 204.647 9.17106 207.479 15.6239C209.205 19.5069 209.468 24.1026 208.53 28.7172C205.735 42.1106 190.708 52.4277 181.684 41.1539ZM125.367 73.118C129.532 59.7059 144.615 53.8908 155.158 52.559C170.879 50.5893 187.969 58.9555 195.717 75.4628C198.831 82.1032 203.24 93.8084 199.056 101.293C193.278 111.554 178.758 104.988 171.779 101.274C163.506 96.791 156.921 92.833 147.41 94.3524L146.397 94.5212C134.372 96.0782 119.42 92.1764 125.367 73.118ZM112.047 149.258C118.276 146.613 126.305 152.728 127.337 159.875C127.956 164.208 127.037 168.766 124.936 172.968C118.839 185.18 101.955 190.582 96.3266 176.72C91.4865 164.752 102.03 153.479 112.047 149.258ZM74.2649 148.451C68.1491 137.178 77.698 124.797 87.4719 119.507C93.5126 116.225 102.292 121.327 104.074 128.305C105.144 132.525 104.656 137.14 102.949 141.511C97.9962 154.285 81.4124 161.507 74.2649 148.451ZM0.950958 121.739C2.35796 117.219 4.83427 113.355 8.32362 110.691C14.0829 106.339 24.2884 107.877 27.1023 114.255C31.6047 124.553 31.5484 140.291 19.6359 145.187C5.8098 150.927 -3.00739 134.87 0.950958 121.739ZM54.6982 140.854C40.9284 145.169 34.2124 128.211 39.3901 115.531C41.1723 111.179 43.9675 107.502 47.5695 105.232C53.5164 101.481 63.1027 104.069 65.11 110.728C68.2992 121.496 66.5921 137.159 54.6982 140.854ZM23.9131 161.47C39.5402 152.109 58.4127 154.735 70.344 165.127C78.3545 172.124 87.6032 185.349 83.5698 198.817C77.848 217.951 63.2715 212.83 54.1917 204.82L53.4226 204.107C46.3876 197.56 38.7148 197.148 29.3535 196.266C21.4931 195.46 5.75352 192.777 6.72903 181.053C7.40439 172.481 17.6286 165.24 23.9131 161.47Z" fill="#66DCD6" fill-opacity="0.21"/>
</svg>
