<svg width="123" height="127" viewBox="0 0 123 127" fill="none"
  xmlns="http://www.w3.org/2000/svg">
  <path d="M56.0876 18.3827C56.0876 18.3827 35.1563 -20.8112 13.6184 15.2608C-7.91959 51.2575 52.8645 90 52.8645 90C52.8645 90 103.069 66.3783 103.979 35.3467C104.889 4.31505 75.578 -2.26741 65.8707 8.1517C56.1634 18.5332 56.0876 18.3827 56.0876 18.3827Z" fill="#E16088"/>
  <path d="M39.4328 46.195C39.4328 46.195 38.2856 46.2719 38.018 45.6186C37.7503 44.9654 37.712 44.7733 37.712 44.7733C37.712 44.7733 37.6356 44.7733 37.712 44.1969C37.7885 43.6205 37.7885 43.6205 37.7885 43.6205C37.5973 43.2362 37.5208 43.5052 37.5208 42.9673C37.5208 42.4293 37.4444 42.3909 37.712 42.1988C37.9797 42.0835 38.668 41.3534 39.5093 41.046C40.3506 40.6617 41.4595 40.0854 41.4595 39.6242C41.4595 39.1631 41.4595 37.9335 41.4595 37.3956C41.4595 36.8576 42.3008 35.7817 42.3008 35.7817C42.3008 35.7817 43.4098 33.4377 46.4307 32.5924C46.4307 32.5924 51.8225 32.5155 52.8932 32.7845C53.9639 33.0535 55.5318 33.6299 56.0671 34.0141C56.6025 34.3984 59.3175 36.7423 59.3175 36.7423L59.4322 37.5108C59.4322 37.5108 59.4322 38.1641 59.8911 37.6261C60.35 37.0882 63.2562 32.9382 63.7151 32.3618C64.1739 31.7854 67.8067 27.9429 68.2656 27.597C68.7244 27.2896 71.5159 25.7142 72.5484 25.5221C73.5809 25.3299 77.6725 25.5221 77.6725 25.5221C77.6725 25.5221 78.2079 25.791 78.8197 25.7142C79.3933 25.6373 80.77 23.9466 80.77 23.9466C80.77 23.9466 84.0586 20.642 84.6704 19.374C85.244 18.2212 86.4294 15.8772 86.353 14.3018C86.2765 12.7263 86.353 10.5361 86.353 10.5361L85.397 8C85.397 8 86.6971 8.26898 87.3472 9.11434C87.9973 9.9597 88.7621 11.074 88.915 12.6879C89.1062 14.3018 88.915 16.5305 88.915 16.5305C88.915 16.5305 88.4561 19.6045 87.6913 21.1031C86.9266 22.6017 85.0528 24.5998 84.3263 25.9832C83.5615 27.4049 83.1791 27.6739 83.2938 28.2503C83.4085 28.8267 83.5997 29.7489 84.3263 31.3627C85.091 32.9766 85.7411 33.7067 85.8176 35.0132C85.8941 36.3196 85.8941 41.6608 85.8941 42.1219C85.8941 42.583 85.7029 42.9673 85.244 44.2737C84.7851 45.5802 84.5939 45.8492 84.5939 45.8492C84.5939 45.8492 84.4792 51.6515 84.5174 52.7658C84.5939 53.8033 84.7086 57.3769 84.7086 57.3769C84.7086 57.3769 85.4352 60.9504 85.5499 62.3722C85.6646 63.7939 85.4734 64.6009 85.4734 64.6009C85.4734 64.6009 87.156 67.6749 87.6149 67.9055C87.6149 67.9055 88.3797 69.0582 86.8501 69.7883C85.2822 70.5568 84.2115 70.0957 84.2115 70.0957C84.2115 70.0957 84.4027 70.4031 83.7527 70.211C83.0261 70.0189 81.3436 68.0592 81.3436 68.0592C81.3436 68.0592 81.726 66.3684 82.6437 65.331C82.6437 65.331 82.8349 62.4106 82.6437 61.6805C82.4525 60.9504 82.2613 60.643 82.2613 60.643C82.2613 60.643 82.4525 57.7227 81.9554 56.6084C81.42 55.5709 80.464 51.8052 80.464 51.8052C80.464 51.8052 78.8962 48.4237 78.5903 48.0779C78.2844 47.7705 77.6725 44.4274 77.6725 44.4274C77.6725 44.4274 73.8486 52.3047 73.7721 52.5737C73.6956 52.8426 73.3132 53.8801 72.8543 54.3797C72.3955 54.9176 71.9366 55.5324 71.9366 55.5324C71.9366 55.5324 72.9691 55.8398 72.9691 56.7621C72.8926 57.6843 72.8926 57.9148 72.4337 58.4528C71.9748 59.0292 70.8276 60.6046 70.1011 61.181C69.3745 61.7574 68.3038 62.6027 67.9596 62.6027C67.6537 62.6027 67.3096 62.3338 67.0419 62.718C66.7742 63.1023 65.8947 64.2166 65.3594 64.524C64.824 64.8314 64.4034 64.9851 64.4034 64.9851L64.4798 70.9027C64.4798 70.9027 63.5621 71.8249 61.6883 72.5934C59.7381 73.3619 59.5469 73.1698 58.5909 73.7462C57.5584 74.3225 56.373 75.0526 56.1436 76.2822C55.8759 77.5119 56.2201 78.242 55.1876 78.242C54.1551 78.242 54.2316 77.704 53.3138 78.242C52.3961 78.7799 52.1667 79.2794 51.0577 78.8183C49.9105 78.3572 49.834 78.0498 49.2604 78.0498C48.6868 78.0498 48.6868 76.4744 48.9545 75.898C49.2222 75.3216 50.2547 73.7462 51.2871 73.4772C52.3196 73.2082 54.0786 70.6721 54.0786 70.6721L58.7439 68.3281C58.7439 68.3281 59.2792 65.5231 57.7114 64.5624C56.1436 63.6018 53.6962 63.4481 53.6962 63.4481L53.0462 63.256C53.0462 63.256 52.2049 63.4481 50.9048 63.4481C49.6046 63.4481 48.3809 63.1791 48.3809 63.1791C48.3809 63.1791 45.0158 65.8305 43.7922 68.7124C43.7922 68.7124 39.1269 69.8652 38.4004 70.0189C37.7503 70.1342 32.1673 71.8249 31.6702 71.9017C31.1348 71.9786 29.1463 72.3628 28.8022 72.3628C28.4963 72.3628 27.2344 74.0536 25.743 74.1304C24.1752 74.2073 24.1752 74.2073 24.1752 74.2073C24.1752 74.2073 24.0987 74.5147 22.6074 74.5147C21.116 74.5147 18.0186 74.2073 17.7509 74.1304C17.4832 74.0536 17.3685 73.4772 16.8332 73.2082C16.3743 73.0161 15.8007 73.0161 16.0684 72.286C16.336 71.6328 18.5922 70.5184 18.5922 70.5184C18.5922 70.5184 22.6074 70.5953 23.0662 70.4416C23.5251 70.3263 26.699 69.5193 28.7639 67.5212C28.7639 67.5212 32.0526 67.2138 33.7351 66.2147C35.4177 65.2541 36.1442 64.9851 36.8325 64.6393C37.5591 64.3319 38.4004 64.3319 39.2416 63.8708C40.0064 63.4865 41.4978 63.0254 42.1096 61.0657C42.6832 59.106 42.1861 58.9139 42.3773 58.5296C42.5685 58.0685 43.7539 56.9542 43.7922 56.3778C43.8686 55.8014 45.0923 52.0741 45.0923 52.0741C45.0923 52.0741 44.7864 52.3431 44.7864 51.1135C44.7864 49.8839 45.0923 48.9617 45.0923 48.9617L40.6183 48.7695C40.6183 48.7695 39.3181 48.4621 39.3181 47.6552C38.9357 47.3862 39.4328 46.195 39.4328 46.195Z" fill="white"/>
  <path d="M17.2936 105V94.317H23.6993V95.4646H18.5873V99.0743H23.2194V100.222H18.5873V105H17.2936ZM30.2953 101.724V96.9877H31.5264V105H30.2953V103.644H30.2119C30.0241 104.051 29.732 104.397 29.3355 104.682C28.9391 104.963 28.4383 105.104 27.8332 105.104C27.3325 105.104 26.8873 104.995 26.4978 104.776C26.1084 104.553 25.8023 104.219 25.5798 103.774C25.3572 103.326 25.2459 102.76 25.2459 102.079V96.9877H26.477V101.995C26.477 102.58 26.6404 103.046 26.9673 103.393C27.2977 103.741 27.7185 103.915 28.2297 103.915C28.5357 103.915 28.8469 103.837 29.1634 103.68C29.4833 103.524 29.7511 103.284 29.9667 102.96C30.1858 102.637 30.2953 102.225 30.2953 101.724ZM33.7811 105V96.9877H34.9705V98.1979H35.0539C35.2 97.8015 35.4643 97.4798 35.8468 97.2329C36.2293 96.986 36.6606 96.8625 37.1405 96.8625C37.2309 96.8625 37.3439 96.8643 37.4795 96.8678C37.6151 96.8712 37.7177 96.8764 37.7873 96.8834V98.1353C37.7455 98.1249 37.6499 98.1092 37.5004 98.0884C37.3543 98.064 37.1996 98.0519 37.0361 98.0519C36.6466 98.0519 36.2989 98.1336 35.9929 98.297C35.6903 98.457 35.4504 98.6796 35.273 98.9647C35.0991 99.2464 35.0122 99.5681 35.0122 99.9297V105H33.7811ZM39.2465 105V96.9877H40.4359V98.1979H40.5193C40.6654 97.8015 40.9297 97.4798 41.3122 97.2329C41.6947 96.986 42.126 96.8625 42.6059 96.8625C42.6963 96.8625 42.8093 96.8643 42.9449 96.8678C43.0805 96.8712 43.1831 96.8764 43.2527 96.8834V98.1353C43.2109 98.1249 43.1153 98.1092 42.9658 98.0884C42.8197 98.064 42.665 98.0519 42.5015 98.0519C42.112 98.0519 41.7643 98.1336 41.4583 98.297C41.1557 98.457 40.9158 98.6796 40.7384 98.9647C40.5645 99.2464 40.4776 99.5681 40.4776 99.9297V105H39.2465ZM45.7487 108.005C45.54 108.005 45.354 107.987 45.1905 107.952C45.0271 107.921 44.9141 107.89 44.8515 107.859L45.1645 106.774C45.4635 106.85 45.7278 106.878 45.9573 106.857C46.1869 106.836 46.3903 106.734 46.5677 106.549C46.7485 106.368 46.9137 106.075 47.0632 105.668L47.2927 105.042L44.3298 96.9877H45.6652L47.8769 103.373H47.9604L50.1721 96.9877H51.5075L48.1065 106.168C47.9535 106.582 47.7639 106.925 47.5379 107.196C47.3118 107.471 47.0493 107.674 46.7502 107.806C46.4546 107.939 46.1208 108.005 45.7487 108.005ZM57.4306 105V94.317H63.8363V95.4646H58.7243V99.0743H63.3564V100.222H58.7243V105H57.4306ZM65.7989 105V96.9877H66.9883V98.1979H67.0717C67.2178 97.8015 67.4821 97.4798 67.8646 97.2329C68.2471 96.986 68.6783 96.8625 69.1582 96.8625C69.2487 96.8625 69.3617 96.8643 69.4973 96.8678C69.6329 96.8712 69.7355 96.8764 69.8051 96.8834V98.1353C69.7633 98.1249 69.6677 98.1092 69.5182 98.0884C69.3721 98.064 69.2174 98.0519 69.0539 98.0519C68.6644 98.0519 68.3167 98.1336 68.0106 98.297C67.7081 98.457 67.4682 98.6796 67.2908 98.9647C67.1169 99.2464 67.03 99.5681 67.03 99.9297V105H65.7989ZM71.2643 105V96.9877H72.4954V105H71.2643ZM71.8903 95.6523C71.6503 95.6523 71.4434 95.5706 71.2695 95.4072C71.0991 95.2437 71.0139 95.0473 71.0139 94.8177C71.0139 94.5882 71.0991 94.3917 71.2695 94.2283C71.4434 94.0648 71.6503 93.9831 71.8903 93.9831C72.1302 93.9831 72.3354 94.0648 72.5058 94.2283C72.6797 94.3917 72.7666 94.5882 72.7666 94.8177C72.7666 95.0473 72.6797 95.2437 72.5058 95.4072C72.3354 95.5706 72.1302 95.6523 71.8903 95.6523ZM78.1095 105.167C77.3374 105.167 76.6715 104.997 76.1116 104.656C75.5552 104.311 75.1257 103.832 74.8232 103.216C74.5241 102.597 74.3746 101.877 74.3746 101.056C74.3746 100.236 74.5241 99.5124 74.8232 98.8865C75.1257 98.257 75.5465 97.7667 76.0855 97.4155C76.628 97.0608 77.2609 96.8834 77.9843 96.8834C78.4016 96.8834 78.8137 96.953 79.2205 97.0921C79.6274 97.2312 79.9978 97.4572 80.3316 97.7702C80.6654 98.0797 80.9315 98.49 81.1297 99.0012C81.3279 99.5124 81.427 100.142 81.427 100.89V101.411H75.2509V100.347H80.1751C80.1751 99.895 80.0847 99.4916 79.9039 99.1369C79.7265 98.7821 79.4726 98.5022 79.1423 98.297C78.8154 98.0918 78.4294 97.9893 77.9843 97.9893C77.4939 97.9893 77.0697 98.111 76.7115 98.3544C76.3568 98.5944 76.0838 98.9073 75.8925 99.2933C75.7012 99.6794 75.6056 100.093 75.6056 100.535V101.244C75.6056 101.849 75.7099 102.362 75.9186 102.783C76.1307 103.2 76.4246 103.519 76.8002 103.738C77.1757 103.953 77.6122 104.061 78.1095 104.061C78.4329 104.061 78.725 104.016 78.9858 103.925C79.2501 103.832 79.4779 103.692 79.6691 103.508C79.8604 103.32 80.0082 103.087 80.1125 102.809L81.3018 103.143C81.1766 103.546 80.9663 103.901 80.6707 104.207C80.3751 104.51 80.0099 104.746 79.5752 104.917C79.1405 105.083 78.6519 105.167 78.1095 105.167ZM84.5307 100.18V105H83.2997V96.9877H84.489V98.2396H84.5933C84.7811 97.8328 85.0663 97.5059 85.4488 97.259C85.8313 97.0086 86.3252 96.8834 86.9303 96.8834C87.4728 96.8834 87.9474 96.9947 88.3543 97.2172C88.7612 97.4363 89.0776 97.7702 89.3037 98.2188C89.5297 98.6639 89.6427 99.2273 89.6427 99.9089V105H88.4117V99.9923C88.4117 99.3629 88.2482 98.8726 87.9214 98.5213C87.5945 98.1666 87.1459 97.9893 86.5755 97.9893C86.1826 97.9893 85.8313 98.0745 85.5218 98.2449C85.2158 98.4153 84.9741 98.6639 84.7968 98.9908C84.6194 99.3177 84.5307 99.7141 84.5307 100.18ZM94.9177 105.167C94.2501 105.167 93.6606 104.998 93.1494 104.661C92.6382 104.32 92.2383 103.84 91.9497 103.221C91.661 102.599 91.5167 101.863 91.5167 101.015C91.5167 100.173 91.661 99.4429 91.9497 98.8239C92.2383 98.2049 92.64 97.7267 93.1546 97.3894C93.6693 97.0521 94.264 96.8834 94.9386 96.8834C95.4602 96.8834 95.8723 96.9703 96.1749 97.1442C96.4809 97.3146 96.7139 97.5094 96.8739 97.7284C97.0373 97.9441 97.1642 98.1214 97.2547 98.2605H97.359V94.317H98.59V105H97.4007V103.769H97.2547C97.1642 103.915 97.0356 104.099 96.8687 104.322C96.7017 104.541 96.4635 104.737 96.154 104.911C95.8445 105.082 95.4324 105.167 94.9177 105.167ZM95.0847 104.061C95.5785 104.061 95.9958 103.932 96.3366 103.675C96.6774 103.414 96.9365 103.054 97.1138 102.595C97.2912 102.133 97.3799 101.599 97.3799 100.994C97.3799 100.396 97.2929 99.8724 97.119 99.4238C96.9452 98.9717 96.6878 98.6204 96.347 98.3701C96.0062 98.1162 95.5854 97.9893 95.0847 97.9893C94.563 97.9893 94.1283 98.1231 93.7806 98.3909C93.4363 98.6552 93.1772 99.0151 93.0034 99.4707C92.833 99.9228 92.7478 100.431 92.7478 100.994C92.7478 101.564 92.8347 102.082 93.0086 102.548C93.1859 103.011 93.4467 103.379 93.791 103.654C94.1388 103.925 94.57 104.061 95.0847 104.061ZM106.691 98.7821L105.585 99.0951C105.516 98.9108 105.413 98.7317 105.277 98.5578C105.145 98.3805 104.964 98.2344 104.735 98.1197C104.505 98.0049 104.211 97.9475 103.853 97.9475C103.363 97.9475 102.954 98.0606 102.627 98.2866C102.304 98.5092 102.142 98.7926 102.142 99.1369C102.142 99.4429 102.254 99.6846 102.476 99.8619C102.699 100.039 103.047 100.187 103.519 100.305L104.709 100.597C105.425 100.771 105.959 101.037 106.31 101.396C106.661 101.75 106.837 102.208 106.837 102.767C106.837 103.226 106.705 103.637 106.441 103.998C106.18 104.36 105.815 104.645 105.345 104.854C104.876 105.063 104.33 105.167 103.707 105.167C102.89 105.167 102.214 104.99 101.678 104.635C101.143 104.28 100.803 103.762 100.661 103.08L101.829 102.788C101.941 103.219 102.151 103.543 102.461 103.759C102.774 103.974 103.182 104.082 103.686 104.082C104.26 104.082 104.716 103.96 105.053 103.717C105.394 103.47 105.564 103.174 105.564 102.83C105.564 102.552 105.467 102.319 105.272 102.131C105.077 101.94 104.778 101.797 104.375 101.703L103.04 101.39C102.306 101.216 101.767 100.947 101.422 100.582C101.082 100.213 100.911 99.7524 100.911 99.1994C100.911 98.7474 101.038 98.3474 101.292 97.9997C101.549 97.6519 101.899 97.379 102.341 97.1807C102.786 96.9825 103.29 96.8834 103.853 96.8834C104.646 96.8834 105.269 97.0573 105.721 97.405C106.176 97.7528 106.5 98.2118 106.691 98.7821Z" fill="black"/>
  <path d="M0.70942 113.465V112.317H8.72169V113.465H5.36238V123H4.06873V113.465H0.70942ZM9.71931 123V114.988H10.9086V116.198H10.9921C11.1382 115.801 11.4024 115.48 11.785 115.233C12.1675 114.986 12.5987 114.863 13.0786 114.863C13.169 114.863 13.2821 114.864 13.4177 114.868C13.5533 114.871 13.6559 114.876 13.7254 114.883V116.135C13.6837 116.125 13.5881 116.109 13.4386 116.088C13.2925 116.064 13.1377 116.052 12.9743 116.052C12.5848 116.052 12.2371 116.134 11.931 116.297C11.6285 116.457 11.3885 116.68 11.2112 116.965C11.0373 117.246 10.9504 117.568 10.9504 117.93V123H9.71931ZM17.5425 123.188C17.0348 123.188 16.574 123.092 16.1602 122.901C15.7463 122.706 15.4177 122.426 15.1743 122.061C14.9309 121.692 14.8091 121.247 14.8091 120.726C14.8091 120.267 14.8996 119.895 15.0804 119.609C15.2612 119.321 15.5029 119.095 15.8055 118.931C16.108 118.768 16.4418 118.646 16.807 118.566C17.1756 118.483 17.546 118.417 17.9181 118.368C18.4049 118.305 18.7996 118.258 19.1022 118.227C19.4082 118.192 19.6308 118.135 19.7699 118.055C19.9124 117.975 19.9837 117.836 19.9837 117.638V117.596C19.9837 117.081 19.8429 116.681 19.5612 116.396C19.283 116.111 18.8605 115.968 18.2936 115.968C17.7059 115.968 17.2452 116.097 16.9113 116.354C16.5775 116.612 16.3427 116.886 16.2071 117.179L15.0387 116.761C15.2473 116.274 15.5255 115.895 15.8733 115.624C16.2245 115.349 16.607 115.158 17.0209 115.05C17.4382 114.939 17.8485 114.883 18.2519 114.883C18.5093 114.883 18.8048 114.915 19.1387 114.977C19.476 115.036 19.8012 115.16 20.1141 115.348C20.4306 115.535 20.6932 115.819 20.9018 116.198C21.1105 116.577 21.2148 117.085 21.2148 117.721V123H19.9837V121.915H19.9211C19.8377 122.089 19.6986 122.275 19.5038 122.473C19.3091 122.671 19.05 122.84 18.7266 122.979C18.4032 123.118 18.0085 123.188 17.5425 123.188ZM17.7303 122.082C18.2171 122.082 18.6275 121.986 18.9613 121.795C19.2987 121.604 19.5525 121.357 19.7229 121.054C19.8968 120.752 19.9837 120.434 19.9837 120.1V118.973C19.9316 119.036 19.8168 119.093 19.6395 119.145C19.4656 119.194 19.2639 119.237 19.0344 119.276C18.8083 119.31 18.5875 119.342 18.3719 119.369C18.1598 119.394 17.9876 119.415 17.8555 119.432C17.5355 119.474 17.2365 119.542 16.9583 119.635C16.6835 119.726 16.461 119.863 16.2906 120.048C16.1237 120.228 16.0402 120.475 16.0402 120.788C16.0402 121.216 16.1984 121.539 16.5149 121.759C16.8348 121.974 17.2399 122.082 17.7303 122.082ZM23.4617 123V114.988H24.6928V123H23.4617ZM24.0877 113.652C23.8477 113.652 23.6408 113.571 23.4669 113.407C23.2965 113.244 23.2113 113.047 23.2113 112.818C23.2113 112.588 23.2965 112.392 23.4669 112.228C23.6408 112.065 23.8477 111.983 24.0877 111.983C24.3276 111.983 24.5328 112.065 24.7032 112.228C24.8771 112.392 24.964 112.588 24.964 112.818C24.964 113.047 24.8771 113.244 24.7032 113.407C24.5328 113.571 24.3276 113.652 24.0877 113.652ZM28.1786 118.18V123H26.9475V114.988H28.1368V116.24H28.2412C28.429 115.833 28.7141 115.506 29.0966 115.259C29.4792 115.009 29.973 114.883 30.5781 114.883C31.1206 114.883 31.5953 114.995 32.0021 115.217C32.409 115.436 32.7255 115.77 32.9515 116.219C33.1776 116.664 33.2906 117.227 33.2906 117.909V123H32.0595V117.992C32.0595 117.363 31.8961 116.873 31.5692 116.521C31.2423 116.167 30.7937 115.989 30.2234 115.989C29.8304 115.989 29.4792 116.074 29.1697 116.245C28.8637 116.415 28.622 116.664 28.4446 116.991C28.2673 117.318 28.1786 117.714 28.1786 118.18ZM35.5401 123V114.988H36.7712V123H35.5401ZM36.1661 113.652C35.9261 113.652 35.7192 113.571 35.5453 113.407C35.3749 113.244 35.2897 113.047 35.2897 112.818C35.2897 112.588 35.3749 112.392 35.5453 112.228C35.7192 112.065 35.9261 111.983 36.1661 111.983C36.406 111.983 36.6112 112.065 36.7816 112.228C36.9555 112.392 37.0424 112.588 37.0424 112.818C37.0424 113.047 36.9555 113.244 36.7816 113.407C36.6112 113.571 36.406 113.652 36.1661 113.652ZM40.257 118.18V123H39.0259V114.988H40.2152V116.24H40.3196C40.5074 115.833 40.7925 115.506 41.175 115.259C41.5576 115.009 42.0514 114.883 42.6565 114.883C43.199 114.883 43.6737 114.995 44.0805 115.217C44.4874 115.436 44.8039 115.77 45.0299 116.219C45.2559 116.664 45.369 117.227 45.369 117.909V123H44.1379V117.992C44.1379 117.363 43.9745 116.873 43.6476 116.521C43.3207 116.167 42.8721 115.989 42.3018 115.989C41.9088 115.989 41.5576 116.074 41.2481 116.245C40.942 116.415 40.7004 116.664 40.523 116.991C40.3456 117.318 40.257 117.714 40.257 118.18ZM50.8526 126.172C50.258 126.172 49.7468 126.095 49.319 125.942C48.8913 125.792 48.5348 125.594 48.2497 125.347C47.968 125.104 47.7437 124.843 47.5768 124.565L48.5574 123.876C48.6687 124.022 48.8096 124.189 48.98 124.377C49.1504 124.568 49.3834 124.734 49.679 124.873C49.978 125.015 50.3692 125.087 50.8526 125.087C51.4994 125.087 52.0333 124.93 52.454 124.617C52.8748 124.304 53.0852 123.814 53.0852 123.146V121.519H52.9809C52.8905 121.665 52.7618 121.845 52.5949 122.061C52.4314 122.273 52.195 122.463 51.8855 122.63C51.5794 122.793 51.1656 122.875 50.644 122.875C49.9971 122.875 49.4164 122.722 48.9017 122.416C48.3905 122.11 47.9854 121.665 47.6863 121.08C47.3907 120.496 47.2429 119.787 47.2429 118.952C47.2429 118.131 47.3872 117.417 47.6759 116.808C47.9645 116.196 48.3662 115.723 48.8809 115.389C49.3955 115.052 49.9902 114.883 50.6648 114.883C51.1865 114.883 51.6003 114.97 51.9063 115.144C52.2158 115.315 52.4523 115.509 52.6157 115.728C52.7827 115.944 52.9113 116.121 53.0018 116.261H53.1269V114.988H54.3163V123.23C54.3163 123.918 54.1598 124.478 53.8468 124.909C53.5373 125.344 53.12 125.662 52.5949 125.864C52.0732 126.069 51.4925 126.172 50.8526 126.172ZM50.8109 121.769C51.3047 121.769 51.722 121.656 52.0628 121.43C52.4036 121.204 52.6627 120.879 52.84 120.454C53.0174 120.03 53.1061 119.522 53.1061 118.931C53.1061 118.354 53.0191 117.845 52.8453 117.403C52.6714 116.961 52.414 116.615 52.0732 116.365C51.7324 116.114 51.3117 115.989 50.8109 115.989C50.2893 115.989 49.8546 116.121 49.5068 116.386C49.1625 116.65 48.9035 117.005 48.7296 117.45C48.5592 117.895 48.474 118.389 48.474 118.931C48.474 119.488 48.5609 119.98 48.7348 120.407C48.9122 120.832 49.173 121.166 49.5172 121.409C49.865 121.649 50.2962 121.769 50.8109 121.769ZM63.0588 123.188C62.5511 123.188 62.0903 123.092 61.6765 122.901C61.2627 122.706 60.934 122.426 60.6906 122.061C60.4472 121.692 60.3255 121.247 60.3255 120.726C60.3255 120.267 60.4159 119.895 60.5967 119.609C60.7775 119.321 61.0192 119.095 61.3218 118.931C61.6243 118.768 61.9582 118.646 62.3233 118.566C62.6919 118.483 63.0623 118.417 63.4344 118.368C63.9213 118.305 64.316 118.258 64.6185 118.227C64.9245 118.192 65.1471 118.135 65.2862 118.055C65.4288 117.975 65.5001 117.836 65.5001 117.638V117.596C65.5001 117.081 65.3592 116.681 65.0775 116.396C64.7993 116.111 64.3768 115.968 63.81 115.968C63.2223 115.968 62.7615 116.097 62.4276 116.354C62.0938 116.612 61.8591 116.886 61.7234 117.179L60.555 116.761C60.7636 116.274 61.0418 115.895 61.3896 115.624C61.7408 115.349 62.1234 115.158 62.5372 115.05C62.9545 114.939 63.3648 114.883 63.7682 114.883C64.0256 114.883 64.3212 114.915 64.655 114.977C64.9923 115.036 65.3175 115.16 65.6305 115.348C65.9469 115.535 66.2095 115.819 66.4181 116.198C66.6268 116.577 66.7311 117.085 66.7311 117.721V123H65.5001V121.915H65.4375C65.354 122.089 65.2149 122.275 65.0202 122.473C64.8254 122.671 64.5663 122.84 64.2429 122.979C63.9195 123.118 63.5248 123.188 63.0588 123.188ZM63.2466 122.082C63.7335 122.082 64.1438 121.986 64.4777 121.795C64.815 121.604 65.0688 121.357 65.2392 121.054C65.4131 120.752 65.5001 120.434 65.5001 120.1V118.973C65.4479 119.036 65.3331 119.093 65.1558 119.145C64.9819 119.194 64.7802 119.237 64.5507 119.276C64.3246 119.31 64.1038 119.342 63.8882 119.369C63.6761 119.394 63.5039 119.415 63.3718 119.432C63.0519 119.474 62.7528 119.542 62.4746 119.635C62.1999 119.726 61.9773 119.863 61.8069 120.048C61.64 120.228 61.5565 120.475 61.5565 120.788C61.5565 121.216 61.7147 121.539 62.0312 121.759C62.3511 121.974 62.7563 122.082 63.2466 122.082ZM70.2091 118.18V123H68.978V114.988H70.1674V116.24H70.2717C70.4595 115.833 70.7446 115.506 71.1272 115.259C71.5097 115.009 72.0035 114.883 72.6086 114.883C73.1511 114.883 73.6258 114.995 74.0327 115.217C74.4395 115.436 74.756 115.77 74.982 116.219C75.2081 116.664 75.3211 117.227 75.3211 117.909V123H74.09V117.992C74.09 117.363 73.9266 116.873 73.5997 116.521C73.2728 116.167 72.8242 115.989 72.2539 115.989C71.8609 115.989 71.5097 116.074 71.2002 116.245C70.8942 116.415 70.6525 116.664 70.4751 116.991C70.2978 117.318 70.2091 117.714 70.2091 118.18ZM80.5961 123.167C79.9284 123.167 79.339 122.998 78.8278 122.661C78.3166 122.32 77.9167 121.84 77.628 121.221C77.3394 120.599 77.1951 119.863 77.1951 119.015C77.1951 118.173 77.3394 117.443 77.628 116.824C77.9167 116.205 78.3183 115.727 78.833 115.389C79.3477 115.052 79.9423 114.883 80.617 114.883C81.1386 114.883 81.5507 114.97 81.8532 115.144C82.1593 115.315 82.3923 115.509 82.5522 115.728C82.7157 115.944 82.8426 116.121 82.933 116.261H83.0373V112.317H84.2684V123H83.0791V121.769H82.933C82.8426 121.915 82.7139 122.099 82.547 122.322C82.3801 122.541 82.1419 122.737 81.8324 122.911C81.5229 123.082 81.1108 123.167 80.5961 123.167ZM80.763 122.061C81.2568 122.061 81.6741 121.932 82.0149 121.675C82.3557 121.414 82.6148 121.054 82.7922 120.595C82.9695 120.133 83.0582 119.599 83.0582 118.994C83.0582 118.396 82.9713 117.872 82.7974 117.424C82.6235 116.972 82.3662 116.62 82.0254 116.37C81.6846 116.116 81.2638 115.989 80.763 115.989C80.2414 115.989 79.8067 116.123 79.4589 116.391C79.1147 116.655 78.8556 117.015 78.6817 117.471C78.5113 117.923 78.4261 118.431 78.4261 118.994C78.4261 119.564 78.5131 120.082 78.6869 120.548C78.8643 121.011 79.1251 121.379 79.4694 121.654C79.8171 121.925 80.2483 122.061 80.763 122.061ZM99.5887 115.655H98.2951C98.2186 115.283 98.0847 114.956 97.8934 114.675C97.7056 114.393 97.4761 114.157 97.2049 113.965C96.9371 113.771 96.6398 113.625 96.3129 113.527C95.986 113.43 95.6452 113.381 95.2905 113.381C94.6437 113.381 94.0577 113.545 93.5326 113.871C93.0109 114.198 92.5954 114.68 92.2859 115.316C91.9798 115.953 91.8268 116.733 91.8268 117.658C91.8268 118.584 91.9798 119.364 92.2859 120.001C92.5954 120.637 93.0109 121.119 93.5326 121.446C94.0577 121.772 94.6437 121.936 95.2905 121.936C95.6452 121.936 95.986 121.887 96.3129 121.79C96.6398 121.692 96.9371 121.548 97.2049 121.357C97.4761 121.162 97.7056 120.924 97.8934 120.642C98.0847 120.357 98.2186 120.03 98.2951 119.662H99.5887C99.4914 120.208 99.314 120.696 99.0567 121.127C98.7993 121.559 98.4794 121.925 98.0969 122.228C97.7143 122.527 97.2849 122.755 96.8084 122.911C96.3355 123.068 95.8295 123.146 95.2905 123.146C94.3794 123.146 93.5691 122.923 92.8597 122.478C92.1502 122.033 91.5921 121.4 91.1852 120.58C90.7784 119.759 90.5749 118.785 90.5749 117.658C90.5749 116.532 90.7784 115.558 91.1852 114.737C91.5921 113.917 92.1502 113.284 92.8597 112.839C93.5691 112.393 94.3794 112.171 95.2905 112.171C95.8295 112.171 96.3355 112.249 96.8084 112.406C97.2849 112.562 97.7143 112.792 98.0969 113.094C98.4794 113.393 98.7993 113.758 99.0567 114.19C99.314 114.617 99.4914 115.106 99.5887 115.655ZM103.87 123.188C103.362 123.188 102.902 123.092 102.488 122.901C102.074 122.706 101.745 122.426 101.502 122.061C101.258 121.692 101.137 121.247 101.137 120.726C101.137 120.267 101.227 119.895 101.408 119.609C101.589 119.321 101.83 119.095 102.133 118.931C102.436 118.768 102.769 118.646 103.135 118.566C103.503 118.483 103.874 118.417 104.246 118.368C104.732 118.305 105.127 118.258 105.43 118.227C105.736 118.192 105.958 118.135 106.097 118.055C106.24 117.975 106.311 117.836 106.311 117.638V117.596C106.311 117.081 106.17 116.681 105.889 116.396C105.611 116.111 105.188 115.968 104.621 115.968C104.033 115.968 103.573 116.097 103.239 116.354C102.905 116.612 102.67 116.886 102.535 117.179L101.366 116.761C101.575 116.274 101.853 115.895 102.201 115.624C102.552 115.349 102.935 115.158 103.348 115.05C103.766 114.939 104.176 114.883 104.579 114.883C104.837 114.883 105.132 114.915 105.466 114.977C105.804 115.036 106.129 115.16 106.442 115.348C106.758 115.535 107.021 115.819 107.229 116.198C107.438 116.577 107.542 117.085 107.542 117.721V123H106.311V121.915H106.249C106.165 122.089 106.026 122.275 105.831 122.473C105.637 122.671 105.378 122.84 105.054 122.979C104.731 123.118 104.336 123.188 103.87 123.188ZM104.058 122.082C104.545 122.082 104.955 121.986 105.289 121.795C105.626 121.604 105.88 121.357 106.05 121.054C106.224 120.752 106.311 120.434 106.311 120.1V118.973C106.259 119.036 106.144 119.093 105.967 119.145C105.793 119.194 105.591 119.237 105.362 119.276C105.136 119.31 104.915 119.342 104.699 119.369C104.487 119.394 104.315 119.415 104.183 119.432C103.863 119.474 103.564 119.542 103.286 119.635C103.011 119.726 102.789 119.863 102.618 120.048C102.451 120.228 102.368 120.475 102.368 120.788C102.368 121.216 102.526 121.539 102.842 121.759C103.162 121.974 103.567 122.082 104.058 122.082ZM109.789 123V114.988H110.979V116.198H111.062C111.208 115.801 111.472 115.48 111.855 115.233C112.237 114.986 112.669 114.863 113.149 114.863C113.239 114.863 113.352 114.864 113.488 114.868C113.623 114.871 113.726 114.876 113.795 114.883V116.135C113.754 116.125 113.658 116.109 113.508 116.088C113.362 116.064 113.208 116.052 113.044 116.052C112.655 116.052 112.307 116.134 112.001 116.297C111.698 116.457 111.458 116.68 111.281 116.965C111.107 117.246 111.02 117.568 111.02 117.93V123H109.789ZM118.37 123.167C117.598 123.167 116.932 122.997 116.372 122.656C115.816 122.311 115.386 121.832 115.084 121.216C114.785 120.597 114.635 119.877 114.635 119.056C114.635 118.236 114.785 117.512 115.084 116.886C115.386 116.257 115.807 115.767 116.346 115.415C116.889 115.061 117.522 114.883 118.245 114.883C118.662 114.883 119.074 114.953 119.481 115.092C119.888 115.231 120.258 115.457 120.592 115.77C120.926 116.08 121.192 116.49 121.39 117.001C121.589 117.512 121.688 118.142 121.688 118.89V119.411H115.512V118.347H120.436C120.436 117.895 120.345 117.492 120.165 117.137C119.987 116.782 119.733 116.502 119.403 116.297C119.076 116.092 118.69 115.989 118.245 115.989C117.755 115.989 117.33 116.111 116.972 116.354C116.617 116.594 116.344 116.907 116.153 117.293C115.962 117.679 115.866 118.093 115.866 118.535V119.244C115.866 119.849 115.971 120.362 116.179 120.783C116.391 121.2 116.685 121.519 117.061 121.738C117.436 121.953 117.873 122.061 118.37 122.061C118.694 122.061 118.986 122.016 119.246 121.925C119.511 121.832 119.739 121.692 119.93 121.508C120.121 121.32 120.269 121.087 120.373 120.809L121.562 121.143C121.437 121.546 121.227 121.901 120.931 122.207C120.636 122.51 120.271 122.746 119.836 122.917C119.401 123.083 118.913 123.167 118.37 123.167Z" fill="black"/>
</svg>
