<svg width="24" height="30" viewBox="0 0 24 30" fill="none"
  xmlns="http://www.w3.org/2000/svg">
  <path d="M12 0C5.36571 0 0 4.695 0 10.5C0 18.375 12 30 12 30C12 30 24 18.375 24 10.5C24 4.695 18.6343 0 12 0ZM12 14.25C10.8634 14.25 9.77327 13.8549 8.96954 13.1517C8.16582 12.4484 7.71429 11.4946 7.71429 10.5C7.71429 9.50544 8.16582 8.55161 8.96954 7.84835C9.77327 7.14509 10.8634 6.75 12 6.75C13.1366 6.75 14.2267 7.14509 15.0305 7.84835C15.8342 8.55161 16.2857 9.50544 16.2857 10.5C16.2857 11.4946 15.8342 12.4484 15.0305 13.1517C14.2267 13.8549 13.1366 14.25 12 14.25Z" fill="#E16088"/>
</svg>
