<svg width="21" height="19" viewBox="0 0 21 19" fill="none"
  xmlns="http://www.w3.org/2000/svg">
  <path d="M6.52741 0.125045C7.73247 -0.0520385 9.00903 1.29171 9.37667 3.14588C9.74432 4.98963 9.08051 6.63546 7.87545 6.82296C6.6806 7.01046 5.39383 5.66671 5.01597 3.81254C4.63811 1.96879 5.32234 0.322962 6.52741 0.125045ZM13.8293 0.125045C15.0446 0.322962 15.7186 1.96879 15.3612 3.81254C14.9731 5.66671 13.6965 7.01046 12.4915 6.82296C11.2762 6.63546 10.6124 4.98963 10.9902 3.14588C11.3579 1.29171 12.6344 -0.0520385 13.8293 0.125045ZM1.06377 4.91671C2.22798 4.40629 3.81091 5.33338 4.63811 6.94796C5.41426 8.59379 5.14873 10.323 3.99473 10.8334C2.84073 11.3438 1.26801 10.4271 0.461233 8.79171C-0.345548 7.15629 -0.0596005 5.41671 1.06377 4.91671ZM19.4461 4.91671C20.5695 5.41671 20.8554 7.15629 20.0487 8.79171C19.2419 10.4271 17.6692 11.3438 16.5152 10.8334C15.3611 10.323 15.0956 8.59379 15.8718 6.94796C16.699 5.33338 18.2819 4.40629 19.4461 4.91671ZM17.7406 16.1459C17.7815 17.125 17.0462 18.2084 16.1679 18.6146C14.3399 19.4688 12.1749 17.698 10.1426 17.698C8.11033 17.698 5.92488 19.5417 4.12749 18.6146C3.10625 18.1042 2.40159 16.75 2.53435 15.625C2.71818 14.073 4.5462 13.2396 5.62872 12.1042C7.06867 10.6355 8.08991 7.87504 10.1426 7.87504C12.1851 7.87504 13.2676 10.5938 14.6463 12.1042C15.7799 13.375 17.6692 14.448 17.7406 16.1459Z" fill="#E16088"/>
</svg>
