<svg width="163" height="166" viewBox="0 0 163 166" fill="none"
  xmlns="http://www.w3.org/2000/svg">
  <path d="M81.0851 0C76.6519 0 72.8168 2.78191 69.7909 6.78419C66.7651 10.7865 64.267 16.2167 62.156 22.8039C57.9339 35.9784 55.4006 53.8093 55.4006 73.5042C55.8932 91.8979 56.9839 107.83 62.156 124.219C64.267 130.795 66.7651 136.211 69.7909 140.221C72.0779 143.245 74.8223 145.567 77.9185 146.516V159.669H52.9377V166H109.233V159.669H84.2517V146.516C87.3479 145.567 90.0923 143.245 92.3793 140.221C95.4051 136.211 97.9032 130.795 100.014 124.219C101.492 119.576 102.759 114.371 103.814 108.709C109.76 106.353 115.108 103.433 115.108 103.433C122.532 104.418 132.102 106.142 134.495 110.186C135.867 112.578 133.897 116.552 135.656 117.994C140.265 121.757 143.959 118.381 144.733 115.848C145.507 111.136 145.683 106.81 144.03 102.976C143.256 101.218 131.68 94.5708 123.412 92.0386C133.017 93.6564 148.357 95.2038 148.885 97.2788C149.8 100.725 148.639 105.614 151.559 106.247C158.209 107.689 159.194 106.458 159.687 100.972C160.003 97.6657 160.215 94.7114 158.033 91.9682C155.711 89.0491 137.978 84.3716 130.625 82.9648C139.385 77.2322 140.3 76.1068 143.396 72.9415C155.113 71.3589 158.772 66.5055 160.918 58.9792C164.718 56.9042 162.501 52.0508 160.672 51.9453C155.218 51.6992 147.724 52.297 142.622 50.1869C140.722 47.5843 137.38 45.861 133.686 44.2784C132.525 41.6055 135.515 35.3102 133.228 32.8131C129.815 34.1847 125.523 41.0076 123.975 43.6805C123.341 40.2339 120.949 37.139 119.084 34.3606C110.886 44.3487 111.484 51.2771 106.488 62.3555C105.714 47.1271 103.427 33.4462 100.014 22.8039C97.9032 16.2167 95.4051 10.7865 92.3793 6.78419C89.3534 2.78191 85.5183 0 81.0851 0ZM81.0851 6.33051C82.8443 6.33051 84.9554 7.48407 87.3127 10.6036C89.6701 13.7196 92.0274 18.5906 93.9977 24.7312C97.5162 35.697 99.8735 50.7144 100.331 67.4551C85.9757 73.9614 78.974 76.1771 67.3632 79.9403C67.8206 95.3093 68.5947 99.9165 72.0076 111.733C79.5018 113.105 89.1423 112.894 96.918 110.96C96.0736 115.075 95.0884 118.873 93.9977 122.284C92.0274 128.404 89.6701 133.292 87.3127 136.422C84.9554 139.517 82.8443 140.678 81.0851 140.678C79.3259 140.678 77.2148 139.517 74.8575 136.422C72.5001 133.292 70.1428 128.404 68.1725 122.284C63.5985 103.961 61.7689 90.7373 61.7338 73.5042C61.7338 54.3369 64.2318 36.9983 68.1725 24.7312C70.1428 18.5906 72.5001 13.7196 74.8575 10.6036C77.2148 7.48407 79.3259 6.33051 81.0851 6.33051ZM133.721 49.0614C134.952 49.0263 136.184 50.5386 136.571 52.5784C136.993 54.7589 136.254 56.7284 134.952 56.9746C133.65 57.2208 132.278 55.6381 131.856 53.4576C131.469 51.2771 132.173 49.3428 133.474 49.0966C133.545 49.0614 133.65 49.0614 133.721 49.0614ZM15.6987 73.9966C17.8766 83.9847 19.1221 94.0432 35.9437 95.8017C32.3901 107.197 20.9904 114.019 4.9745 123.832C0.337214 126.681 -1.67884 133.117 1.64607 136.563C10.5266 133.328 22.7109 125.696 30.4549 120.139C27.1828 124.078 21.1135 130.233 17.9751 133.996C13.2815 139.553 15.1955 142.331 18.429 144.441C28.168 137.478 38.9695 126.118 45.1972 117.325L53.0081 114.301C49.9118 102.73 49.3489 93.4102 49.2433 83.2462C35.24 82.1911 24.551 80.6788 15.6987 73.9966Z" fill="#66DCD6"/>
</svg>
