<svg width="238" height="212" viewBox="0 0 238 212" fill="none"
  xmlns="http://www.w3.org/2000/svg">
  <path d="M110.888 47.6443C123.289 55.9917 134.282 42.0918 132.537 28.5484C131.918 23.8775 130.155 19.6007 127.191 16.3367C122.351 10.9719 112.258 10.4091 108.581 16.0741C102.615 25.1906 100.176 40.4223 110.888 47.6443ZM76.7827 36.5206C90.0085 43.3486 99.7449 28.1169 96.7246 14.7423C95.6928 10.1652 93.5166 6.07594 90.2524 3.16841C84.9058 -1.63371 74.7754 -0.977172 71.5862 5.13803C66.4272 14.9674 65.4142 30.5743 76.7827 36.5206ZM18.5893 34.4947C12.6987 30.7806 3.37502 35.2075 1.03003 42.0356C-0.395726 46.1811 -0.301926 50.7957 1.06755 55.3164C5.13846 68.4285 21.4033 76.8134 29.6765 64.3204C36.8053 53.6282 28.0819 40.5349 18.5893 34.4947ZM56.3156 41.1539C64.1198 31.4559 56.8034 17.4997 48.1363 10.3716C42.7522 5.98215 33.3534 9.17106 30.5207 15.6239C28.7948 19.5069 28.5321 24.1026 29.4701 28.7172C32.2654 42.1106 47.2921 52.4277 56.3156 41.1539ZM112.633 73.118C108.468 59.7059 93.3853 53.8908 82.8422 52.559C67.1214 50.5893 50.031 58.9555 42.2832 75.4628C39.169 82.1032 34.7604 93.8084 38.9439 101.293C44.722 111.554 59.2422 104.988 66.2209 101.274C74.494 96.791 81.0788 92.833 90.5901 94.3524L91.6031 94.5212C103.628 96.0782 118.58 92.1764 112.633 73.118ZM125.953 149.258C119.724 146.613 111.695 152.728 110.663 159.875C110.044 164.208 110.963 168.766 113.064 172.968C119.161 185.18 136.045 190.582 141.673 176.72C146.513 164.752 135.97 153.479 125.953 149.258ZM163.735 148.451C169.851 137.178 160.302 124.797 150.528 119.507C144.487 116.225 135.708 121.327 133.926 128.305C132.856 132.525 133.344 137.14 135.051 141.511C140.004 154.285 156.588 161.507 163.735 148.451ZM237.049 121.739C235.642 117.219 233.166 113.355 229.676 110.691C223.917 106.339 213.712 107.877 210.898 114.255C206.395 124.553 206.452 140.291 218.364 145.187C232.19 150.927 241.007 134.87 237.049 121.739ZM183.302 140.854C197.072 145.169 203.788 128.211 198.61 115.531C196.828 111.179 194.032 107.502 190.431 105.232C184.484 101.481 174.897 104.069 172.89 110.728C169.701 121.496 171.408 137.159 183.302 140.854ZM214.087 161.47C198.46 152.109 179.587 154.735 167.656 165.127C159.645 172.124 150.397 185.349 154.43 198.817C160.152 217.951 174.728 212.83 183.808 204.82L184.577 204.107C191.612 197.56 199.285 197.148 208.646 196.266C216.507 195.46 232.246 192.777 231.271 181.053C230.596 172.481 220.371 165.24 214.087 161.47Z" fill="#FDF59E" fill-opacity="0.36"/>
</svg>
